<?xml version="1.0" encoding="UTF-8" standalone="no"?>
<svg
   xmlns:dc="http://purl.org/dc/elements/1.1/"
   xmlns:cc="http://creativecommons.org/ns#"
   xmlns:rdf="http://www.w3.org/1999/02/22-rdf-syntax-ns#"
   xmlns:svg="http://www.w3.org/2000/svg"
   xmlns="http://www.w3.org/2000/svg"
   xmlns:sodipodi="http://sodipodi.sourceforge.net/DTD/sodipodi-0.dtd"
   xmlns:inkscape="http://www.inkscape.org/namespaces/inkscape"
   width="100.00003mm"
   height="100.00003mm"
   viewBox="0 0 100.00003 100.00003"
   version="1.1"
   id="svg8"
   inkscape:version="1.0 (4035a4fb49, 2020-05-01)"
   sodipodi:docname="rysunek.svg">
  <defs
     id="defs2">
    <marker
       inkscape:stockid="Arrow1Lend"
       orient="auto"
       refY="0"
       refX="0"
       id="Arrow1Lend"
       style="overflow:visible"
       inkscape:isstock="true">
      <path
         id="path840"
         d="M 0,0 5,-5 -12.5,0 5,5 Z"
         style="fill-rule:evenodd;stroke:#000000;stroke-width:1pt"
         transform="matrix(-0.8,0,0,-0.8,-10,0)" />
    </marker>
  </defs>
  <sodipodi:namedview
     id="base"
     pagecolor="#ffffff"
     bordercolor="#666666"
     borderopacity="1.0"
     inkscape:pageopacity="0.0"
     inkscape:pageshadow="2"
     inkscape:zoom="0.68706452"
     inkscape:cx="14.647405"
     inkscape:cy="379.83624"
     inkscape:document-units="mm"
     inkscape:current-layer="layer1"
     inkscape:document-rotation="0"
     showgrid="false"
     inkscape:window-width="1920"
     inkscape:window-height="1017"
     inkscape:window-x="-8"
     inkscape:window-y="-8"
     inkscape:window-maximized="1" />
  <metadata
     id="metadata5">
    <rdf:RDF>
      <cc:Work
         rdf:about="">
        <dc:format>image/svg+xml</dc:format>
        <dc:type
           rdf:resource="http://purl.org/dc/dcmitype/StillImage" />
        <dc:title />
      </cc:Work>
    </rdf:RDF>
  </metadata>
  <g
     transform="translate(1.5402906e-5,1.2358472e-5)"
     inkscape:label="Warstwa 1"
     inkscape:groupmode="layer"
     id="layer1">
    <path
       style="fill:#d40000;stroke:#d40000;stroke-width:14.4682;stroke-linecap:round;stroke-linejoin:round;stroke-miterlimit:4;stroke-dasharray:none;stroke-dashoffset:0"
       id="path1107"
       sodipodi:type="arc"
       sodipodi:cx="50"
       sodipodi:cy="50.000004"
       sodipodi:rx="42.765915"
       sodipodi:ry="42.765915"
       sodipodi:start="0"
       sodipodi:end="6.2802571"
       sodipodi:arc-type="slice"
       d="M 92.765915,50.000004 A 42.765915,42.765915 0 0 1 50.031307,92.765907 42.765915,42.765915 0 0 1 7.2341309,50.062618 42.765915,42.765915 0 0 1 49.906079,7.234192 42.765915,42.765915 0 0 1 92.765732,49.874777 L 50,50.000004 Z" />
    <path
       style="fill:#ffffff;stroke:#ffffff;stroke-width:14.4682;stroke-linecap:round;stroke-linejoin:round;stroke-miterlimit:4;stroke-dasharray:none;stroke-dashoffset:0"
       id="path1111"
       sodipodi:type="arc"
       sodipodi:cx="50"
       sodipodi:cy="37.692623"
       sodipodi:rx="2.6562681"
       sodipodi:ry="22.843908"
       sodipodi:start="0"
       sodipodi:end="6.2802532"
       sodipodi:arc-type="slice"
       d="M 52.656268,37.692623 A 2.6562681,22.843908 0 0 1 50.001947,60.536525 2.6562681,22.843908 0 0 1 47.343735,37.726114 2.6562681,22.843908 0 0 1 49.994159,14.84877 2.6562681,22.843908 0 0 1 52.656257,37.625642 L 50,37.692623 Z" />
    <path
       style="fill:#ffffff;stroke:#ffffff;stroke-width:14.4682;stroke-linecap:round;stroke-linejoin:round;stroke-miterlimit:4;stroke-dasharray:none;stroke-dashoffset:0"
       id="path1116"
       sodipodi:type="arc"
       sodipodi:cx="50"
       sodipodi:cy="81.963768"
       sodipodi:rx="1.9479301"
       sodipodi:ry="1.9479302"
       sodipodi:start="0"
       sodipodi:end="6.2802532"
       sodipodi:arc-type="slice"
       d="m 51.94793,81.963768 a 1.9479301,1.9479302 0 0 1 -1.946502,1.94793 1.9479301,1.9479302 0 0 1 -1.949356,-1.945074 1.9479301,1.9479302 0 0 1 1.943644,-1.950782 1.9479301,1.9479302 0 0 1 1.952206,1.942214 L 50,81.963768 Z" />
  </g>
</svg>
