<?xml version="1.0" encoding="UTF-8" standalone="no"?>
<svg
   xmlns:dc="http://purl.org/dc/elements/1.1/"
   xmlns:cc="http://creativecommons.org/ns#"
   xmlns:rdf="http://www.w3.org/1999/02/22-rdf-syntax-ns#"
   xmlns:svg="http://www.w3.org/2000/svg"
   xmlns="http://www.w3.org/2000/svg"
   xmlns:sodipodi="http://sodipodi.sourceforge.net/DTD/sodipodi-0.dtd"
   xmlns:inkscape="http://www.inkscape.org/namespaces/inkscape"
   inkscape:version="1.0 (4035a4fb49, 2020-05-01)"
   sodipodi:docname="watchSVG.svg"
   id="svg849"
   enable-background="new 0 0 512 512"
   viewBox="0 0 512 512"
   version="1.1">
  <metadata
     id="metadata855">
    <rdf:RDF>
      <cc:Work
         rdf:about="">
        <dc:format>image/svg+xml</dc:format>
        <dc:type
           rdf:resource="http://purl.org/dc/dcmitype/StillImage" />
      </cc:Work>
    </rdf:RDF>
  </metadata>
  <defs
     id="defs853" />
  <sodipodi:namedview
     inkscape:current-layer="svg849"
     inkscape:window-maximized="1"
     inkscape:window-y="-8"
     inkscape:window-x="-8"
     inkscape:cy="265.71687"
     inkscape:cx="256"
     inkscape:zoom="1.6162671"
     showgrid="false"
     id="namedview851"
     inkscape:window-height="1017"
     inkscape:window-width="1920"
     inkscape:pageshadow="2"
     inkscape:pageopacity="0"
     guidetolerance="10"
     gridtolerance="10"
     objecttolerance="10"
     borderopacity="1"
     bordercolor="#666666"
     pagecolor="#ffffff" />
  <g
     transform="translate(0,-16)"
     style="fill:#ffffff"
     id="g847">
    <path
       style="fill:#ffffff"
       id="path845"
       d="M 494.8,241.4 444.2,192 C 394.1,143.1 327.3,116.2 256,116.2 184.7,116.2 117.9,143.1 67.8,192 l -50.6,49.4 c -11.3,12.3 -4.3,25.4 0,29.2 L 67.8,320 c 50.1,48.9 116.9,75.8 188.2,75.8 71.3,0 138.1,-26.9 188.2,-75.8 l 50.6,-49.4 c 4,-3.8 11.7,-16.4 0,-29.2 z M 256,325.8 c -38.5,0 -69.8,-31.3 -69.8,-69.8 0,-38.5 31.3,-69.8 69.8,-69.8 38.5,0 69.8,31.3 69.8,69.8 0,38.5 -31.3,69.8 -69.8,69.8 z M 60.7,256 96.4,221.2 c 27,-26.4 59.8,-45.2 95.7,-55.4 -28.2,20.1 -46.6,53 -46.6,90.1 0,37.1 18.4,70.1 46.6,90.1 -35.9,-10.2 -68.7,-29 -95.7,-55.3 z m 355,34.8 c -27,26.3 -59.8,45.1 -95.7,55.3 28.2,-20.1 46.6,-53 46.6,-90.1 0,-37.2 -18.4,-70.1 -46.6,-90.1 35.9,10.2 68.7,29 95.7,55.4 l 35.6,34.8 z" />
  </g>
</svg>
